<?xml version="1.0" encoding="UTF-8"?>
<svg width="300" height="300" version="1.1" viewBox="0 0 19.84375 19.84375" xmlns="http://www.w3.org/2000/svg" xmlns:cc="http://creativecommons.org/ns#" xmlns:dc="http://purl.org/dc/elements/1.1/" xmlns:rdf="http://www.w3.org/1999/02/22-rdf-syntax-ns#">
<metadata>
<rdf:RDF>
<cc:Work rdf:about="">
<dc:format>image/svg+xml</dc:format>
<dc:type rdf:resource="http://purl.org/dc/dcmitype/StillImage"/>
<dc:title/>
</cc:Work>
</rdf:RDF>
</metadata>
<ellipse cx="9.8455" cy="9.9157" rx="9.7799" ry="9.7783" fill="#848aae"/>
<g stroke="#000">
<path d="m1.0708 14.186s1.0622-0.18712 2.0984-1.8837c0 0 0.4553-0.9025 0.79332-1.4245l0.11981-0.18502c-0.46939-0.12327-1.3846 0.11261-1.7854 0.19648-0.47986 0.10041-1.2686 0.18026-1.6334 0.18444-0.36484 4e-3 -0.50647 0.02501-0.50647 0.02501l0.058621-2.7676 0.66989-2.0823s0.84229 1.038 0.89829 1.1585c0.055995 0.12048 0.32777 0.36989 0.58992 0.44072 0.26215 0.070824 1.7112 0.15051 1.9244 0.1159 0.21315-0.034423 1.2299-0.31303 1.9089-0.1148 0.67894 0.19819 2.4437 0.68083 2.8844 0.87947 0.44074 0.19863 4.3976 2.3204 4.8144 2.4478 0.41679 0.12737 1.5538 0.44301 2.1477 0.87271 0.59396 0.4297 1.983 1.6627 2.1627 1.7534 0.17969 0.09071 0.53304-0.1552 0.53304-0.1552l0.08001 0.19436-0.6502 1.3554-0.73158 1.075-0.96318 0.98568s-1.0495-1.3303-1.3323-1.7438c-0.09333-0.13646-0.21838-0.09314-0.2177 0.09357 0.0019 0.50674 0.14224 0.67295-0.02583 1.1991-0.16809 0.52618-0.14972 1.6707-0.14972 1.6707l-1.2144 0.54376-2.2055 0.58152-1.6917 0.06921-1.7253-0.1806-1.5968-0.49627-1.6021-0.82326-1.3124-0.9299-1.1259-1.2244z" fill="#a3a3a3" stroke-width=".10636"/>
<path d="m1.8417 8.0444c0.00174-0.1637 0.029593-0.3286 0.062935-0.49376 0 0 0.22307 0.026187 0.3665 0.1179 0.30806 0.19698 0.28982 0.2041 0.28982 0.2041s0.15934 0.32164 0.1376 0.43198" fill="#a3a3a3" stroke-linecap="round" stroke-width=".10583"/>
<path d="m15.159 15.518s-0.35725-0.417-0.65487-0.62643c-0.29762-0.20944-0.53792-0.36093-0.53792-0.36093" fill="none" stroke-linecap="round" stroke-width=".081439"/>
<path d="m4.0823 10.692s0.27073-0.15637 0.40792-0.29291c0.13719-0.13654 0.39727-0.48957 0.51343-0.60268" fill="none" stroke-linecap="round" stroke-width=".10583"/>
</g>
<path d="m9.9247 10.512c0.81752 0.69567 2.3299 1.1908 3.3094 0.41846 0.08725-0.0688 0.11762 0.07471 0.26258-0.03394 0.13287-0.09958 0.05349-0.37726-0.03597-0.65557-0.21031-0.54465-2.5635-1.8467-2.5635-1.8467s-2.0304-0.60922-2.2493-0.81155c-0.3886-0.35912-1.3704 0.51396-0.85498 0.7702 0.1334 0.066324-0.096136 0.36436 0.30528 0.8236 0.50682 0.57985 1.4815 1.4042 1.8117 1.274z" fill="#a3a3a3" stroke="#000" stroke-width=".10583"/>
<path d="m9.9099 10.45s0.20148-0.0991 0.59573-0.06737c0.42949 0.03457 1.067 0.20036 1.3908 0.20386 0.27306 3e-3 0.49029 0.07792 0.73786 0.08265 0.37763 0.0072 0.71979-0.08268 0.60499-0.31996-0.89381-1.8475-4.4847-2.6823-4.4847-2.6823s-0.65873-0.15868-0.4227 0.40871c0.10578 0.25429 0.26279 0.62127 0.57128 1.0549 0.11317 0.15909 0.359 0.34668 0.47005 0.49461 0.35877 0.47793 0.53678 0.82493 0.53678 0.82493z" fill="#1a1a1a" stroke="#000" stroke-width=".10583"/>
<g fill="none" stroke="#000" stroke-linecap="round">
<path d="m9.3371 10.059c-0.31793 0.67436-0.46704 0.7865-0.83072 1.1607-0.36369 0.37416-0.878 1.47-0.878 1.47" stroke-width=".23908"/>
<path d="m10.617 10.707c-0.45894 1.3095-0.15671 0.892-0.36116 1.2819-0.20446 0.38986-0.36238 1.8303-0.36238 1.8303" stroke-width=".22274"/>
</g>
<g display="none">
<path d="m2.3243 16.032s0.74907-0.87847 1.2178-1.2694c0.46877-0.39094 1.3192-1.0622 1.8727-1.327 0.55357-0.26478 1.7963-0.95702 2.0875-1.143 0.29117-0.18596 1.1196-0.67556 1.2647-0.87393 0.14519-0.19838 0.29209-0.80215 0.29209-0.80215l0.99184-0.14321 0.34724 0.91648s-0.43039 0.2481-0.56268 0.42697c-0.13229 0.17887-0.26128 0.37394-0.24774 0.52308 0.013536 0.14913 0.13281 0.81676 0.077324 1.5791-0.055491 0.76234-0.34844 3.0498-0.44438 3.4069-0.095941 0.3571-0.77621 2.2763-0.77621 2.2763l-4.0372 0.10608z" fill="#8d3232" stroke="#000" stroke-width=".052917"/>
<path d="m8.436 11.724c0.024577 0.02016 0.05446 0.03197 0.083413 0.04429 0.029877 0.01111 0.059714 0.02251 0.090387 0.03126 0.020111 0.0046 0.039475 0.01159 0.058723 0.01889 0.02101 0.0088 0.042554 0.01629 0.063688 0.02481 0.028117 0.01292 0.057006 0.02406 0.085805 0.03535 0.024413 0.01 0.049408 0.01838 0.07399 0.02788 0.0022 0.0011 0.0045 0.0019 0.00662 0.0032 0.010647 0.0061 0.020508 0.01386 0.030858 0.02047 0.010332 0.0066 0.017254 0.01039 0.027956 0.01652 0.022918 0.01232 0.046774 0.02268 0.069727 0.03494 0.018992 0.0091 0.035858 0.02155 0.052351 0.03449 0.019182 0.01597 0.036878 0.03357 0.055552 0.05012 0.015301 0.0133 0.031477 0.02553 0.046757 0.03885 0.012166 0.01107 0.023122 0.02333 0.034937 0.03476 0.01215 0.01189 0.024384 0.0237 0.0365 0.03562 0.011136 0.0109 0.022066 0.022 0.031844 0.03415 0.00611 0.0084 0.010716 0.01772 0.016447 0.02634 0.00398 6e-3 0.0066 0.0091 0.011049 0.01466 0.00873 0.01066 0.018119 0.02069 0.028036 0.03024 0.00791 0.0075 0.01383 0.01689 0.020156 0.02573 0.00924 0.01458 0.020198 0.02785 0.031474 0.04086 0.0013 0.0014 0.00267 0.0027 0.0039 0.0042 0.00209 0.0025 0.00488 0.0072 0.0065 0.0096 0.0054 0.0081 0.010888 0.01618 0.016671 0.02407 0.010176 0.01424 0.022617 0.02651 0.035574 0.03818 0.00956 7e-3 0.018156 0.01515 0.027027 0.02298 0.00108 1e-3 0.00225 2e-3 0.00327 0.0031 0.00552 6e-3 0.010308 0.01271 0.01592 0.01867 0.00434 0.0046 0.010218 0.01012 0.014843 0.01453 0.011697 0.0111 0.023498 0.0222 0.037212 0.03078 0.00301 5.82e-4 0.00473 0.0034 0.00682 0.0053 0.00262 0.0025 0.00435 0.0037 0.00723 0.0059 0.0018 0.0021 0.00379 0.0024 0.0059 0.0036 0.00191 0.0026 0.038686-0.02447 0.036772-0.02707v0c-0.00311-0.0038-0.00613-0.0078-0.010589-0.01005-0.00116-7.14e-4 -0.00445-0.0028-0.00578-0.0035-5.557e-4 -2.91e-4 -0.00124-3.7e-4 -0.00177-7.41e-4 -0.00268-0.0019-0.00434-0.0052-0.00692-0.0072-0.010573-0.0086-0.019227-0.01933-0.029711-0.02806-0.012062-0.01205-0.025551-0.0226-0.036643-0.03559-0.00867-0.0084-0.01764-0.01657-0.027487-0.02363-0.011049-0.0097-0.01982-0.02149-0.028704-0.03314-0.00225-0.0029-0.010644-0.01381-0.012859-0.01645-0.00563-0.0067-0.011896-0.01292-0.016126-0.02071-0.00942-0.01377-0.020029-0.02645-0.030725-0.03923-0.00759-0.01108-0.015467-0.022-0.025334-0.03118-0.00369-0.0037-0.00663-0.0079-0.010097-0.01185-0.00469-0.0053-0.00942-0.01054-0.013854-0.01607-0.010226-0.01176-0.017597-0.02529-0.025781-0.03849-0.0018-0.0028-0.00345-0.0057-0.00542-0.0083-0.00854-0.01161-0.019653-0.02078-0.03031-0.0303-0.0118-0.01319-0.023111-0.02691-0.036957-0.03808-0.00846-0.0077-0.016158-0.01623-0.024529-0.02405-0.0018-0.0017-0.00377-0.0032-0.00556-0.0049-0.00193-0.0019-0.00375-0.0038-0.00563-0.0058-0.0147-0.01436-0.02939-0.02871-0.04502-0.04208-0.019616-0.01655-0.038267-0.03413-0.057388-0.05124-0.018325-0.01442-0.037737-0.02721-0.058105-0.03857-0.012859-0.0073-0.00628-0.0034-0.019709-0.01144-0.015737-9e-3 -0.032199-0.0167-0.047862-0.02585-0.023582-0.01266-0.047106-0.02547-0.070341-0.03873-0.023746-0.01283-0.048645-0.02321-0.073707-0.03319-0.028804-0.01132-0.058118-0.02121-0.086879-0.03261-0.00564-0.0023-0.017735-0.0074-0.023416-0.0095-0.013851-0.0051-0.028101-0.0091-0.04185-0.01451-0.020018-0.0078-0.039572-0.01683-0.06056-0.02183-0.0065-0.0021-0.016669-0.0053-0.022902-0.0077-0.020614-8e-3 -0.040623-0.01761-0.06123-0.02565-0.00922-0.0036-0.027856-0.01109-0.037361-0.01448-0.00536-0.0019-0.010853-0.0034-0.016224-0.0053-0.018627-0.0066-0.00568-0.0024-0.022389-0.0093-0.0022-9e-4 -0.00447-0.0016-0.0067-0.0024-0.00243-0.0022-0.033911 0.03211-0.031483 0.03434z" stroke="#000" stroke-linecap="round" stroke-width=".026458"/>
<path d="m6.9263 14.453s-0.82243-0.44369-1.2735 0.30685c-0.45106 0.75054-0.318 0.94017-0.24705 1.1071 0.07095 0.16688 0.32185 0.70788 0.80004 0.72456 0.4782 0.01668 0.75096-0.09848 0.84816-0.20001 0.29955-0.31293 0.41108-0.57511 0.43045-0.7001 0.01937-0.12499-0.035612-0.77736-0.27857-1.0118" fill="#000300"/>
<path d="m5.6292 17.252s0.51579 0.25059 0.5576 0.78544c0.041817 0.53485-0.1203 0.97738-0.1203 0.97738l-2.3691-1.2729s0.35644-0.4682 0.71841-0.59096c0.36197-0.12276 0.57259-0.16888 0.8055-0.08356 0.23291 0.08532 0.40786 0.18464 0.40786 0.18464z" fill="#000300"/>
<path d="m3.9588 15.971s0.33165-0.29237 0.39675-0.63835c0.065107-0.34598 0.084208-0.50629 0.056497-0.58689-0.027711-0.0806-0.12491-0.19986-0.24279-0.23864s-0.31362-0.0092-0.31362-0.0092l-0.29375 0.24899-0.67582 0.65499-0.27523 0.33065s-0.088013 0.32438-0.0058 0.5086c0.082211 0.18421 0.29014 0.22957 0.41693 0.23199 0.12679 0.0024 0.48515-0.08644 0.58954-0.16707 0.10439-0.08064 0.34729-0.33507 0.34729-0.33507z" fill="#000300"/>
<path d="m8.1951 17.17s-0.26915 0.30205-0.27707 0.66018c-0.00792 0.35813 0.0013 0.48919 0.026828 0.5998 0.025519 0.11061 0.18422 0.36247 0.34802 0.39606 0.16381 0.03359 0.50452-0.21143 0.50452-0.21143l0.22338-0.65784 0.21135-0.64904 0.072332-0.41378s-0.11392-0.21784-0.23929-0.22415c-0.12537-0.0063-0.34429-0.03367-0.47662 0.06315-0.13233 0.09682-0.39345 0.43703-0.39345 0.43703z" fill="#000300"/>
<path d="m6.2044 13.927s-0.35044 0.17541-0.65953 0.18987c-0.30909 0.01445-0.27623 0.0089-0.33407-0.02552-0.057843-0.0344-0.21742-0.21173-0.21681-0.32158 6.085e-4 -0.10984 0.10423-0.16434 0.10423-0.16434l0.32961-0.17864 0.41939-0.20739 0.6882-0.36428s0.11876-0.03574 0.18579-0.0024c0.067029 0.03336 0.092972 0.263 0.068798 0.329-0.024175 0.06599-0.19755 0.49119-0.38576 0.62036" fill="#000300"/>
<path d="m8.6346 14.012s-0.11169 0.32892 0.12856 0.74274c0.24025 0.41382 0.25785 0.43788 0.39553 0.4707 0.13767 0.03282 0.38269-0.07114 0.38269-0.07114l0.14693-1.4827s-0.11719-0.32911-0.35048-0.40136c-0.23329-0.07226-0.34675-0.03897-0.38891 0.01603-0.042162 0.055-0.089628 0.11246-0.20197 0.41912" fill="#000300"/>
</g>
<g stroke="#000">
<path d="m9.1916 5.9096s-0.11604-0.329-0.08692-0.47916c0.029115-0.15017 0.096216-0.21615 0.16799-0.30876 0.045926-0.059261 0.094999-0.12527 0.1645-0.15339 0.081933-0.033157 0.1929-0.036918 0.26512-0.00493 0.072216 0.031984 0.22821 0.18367 0.22821 0.18367z" fill="#d8afb2" stroke-width=".052917"/>
<path d="m9.5429 5.12c-0.014976 0.0032-0.028668 0.010459-0.041468 0.018368-0.013395 0.010357-0.027055 0.020515-0.038897 0.032561-0.0031 0.00316-0.00594 0.00655-0.00891 0.00982-0.017409 0.021073-0.032373 0.043928-0.04433 0.068248-0.00779 0.015463-0.011584 0.032136-0.015396 0.048776-0.00293 0.012707-0.00601 0.025383-0.00775 0.038305-1.681e-4 0.00128-3.399e-4 0.00253-4.944e-4 0.00379-4.944e-4 0.00264 0.038388 0.00928 0.038876 0.00664v0c4.635e-4 -0.0016 9.269e-4 -0.00323 0.00139-0.00484 3e-3 -0.012439 0.00628-0.024797 0.00833-0.037429 0.00244-0.013685 0.00963-0.026079 0.01596-0.038412 0.012631-0.02083 0.026286-0.041132 0.040709-0.060849 0.011503-0.013262 0.023483-0.026524 0.038101-0.036703 0.010102-0.00604 0.021123-0.010403 0.031698-0.015598 0.00241-0.00122-0.015415-0.033894-0.017816-0.032683z" stroke-linecap="round" stroke-linejoin="round" stroke-width=".030305" style="paint-order:normal"/>
</g>
<g stroke="#000" stroke-width=".052917">
<path d="m12.413 4.123c0.70585 0.28186 0.286 0.049989 0.77341 0.33024 0.48742 0.28025 0.84545 0.42888 1.0723 0.731 0.22687 0.30212 0.37417 0.63479 0.37561 0.86452 0.0014 0.22973 0.03707 0.6985 0.17564 1.0547 0.13852 0.35624 0.03228 0.67012-0.01558 0.9192-0.04784 0.24908-0.43122 1.2512-0.8507 1.649-0.41948 0.39782-0.59527 0.55426-1.0692 0.61556-0.47397 0.0613-0.90189-0.03215-1.1714-0.11081-0.26951-0.07866-0.88872-0.35362-0.88872-0.35362l-0.43602 0.50127s-0.32316-0.07756-0.5063-0.24008c-0.18312-0.16253-0.11985-0.26677-0.11985-0.26677l0.20904-0.41819s-0.45758-0.31555-0.81634-0.7698-0.51108-0.6372-0.66519-0.91656c-0.15411-0.27936-0.20179-0.85995-0.040882-1.2062 0.16091-0.34621 0.34737-0.63552 0.58263-0.81427 0.22865-0.17373 0.66812-0.37408 0.66812-0.37408s0.34054-0.53103 0.51517-0.70523c0.17892-0.17848 0.4082-0.39477 0.62878-0.43008 0.22059-0.035306 0.33576 0.029729 0.50398 0.027494 0.35966-0.00478 0.09533-0.17409 1.0755-0.087382z" fill="#d8afb2"/>
<path d="m9.9607 9.3991c0.00634 0.013766 0.022066 0.016558 0.032241 0.025469 0.010565 0.00925 0.023611 0.016349 0.033832 0.026196 0.0038 0.00371 0.01058 0.00609 0.01521 0.00874 0.01071 0.00616 0.02118 0.012115 0.03095 0.019481 0.0075 0.00565 0.01611 0.00917 0.02335 0.01511 7e-3 0.00573 0.03832 0.018764 0.04181 0.024043 0.0015 0.00225 0.01061 0.00947 0.01248 0.010549" fill="none" stroke-linecap="round"/>
</g>
<g>
<path d="m11.571 2.8783s0.30914-0.24063 0.61557-0.27206c0.30643-0.031425 0.57197 0.16081 0.57197 0.16081s0.51729 0.10344 0.60954 0.13358c0.09225 0.030138 0.4661 0.051258 0.7631 0.29014 0.297 0.23888 0.626 0.66733 0.626 0.66733s0.24492 0.10245 0.31135 0.20092c0.06643 0.098465 0.19067 0.31817 0.25485 0.437 0.06417 0.11883 0.2129 0.37481 0.23065 0.47218 0.01773 0.097374 0.08153 0.17761 0.08279 0.29674 0.0013 0.11913-0.22022 0.77058-0.22022 0.77058l-0.41308 0.83429s0.19132 0.086617 0.13946 0.24426c-0.05188 0.15764-0.12333 0.48941-0.21778 0.71475-0.07446 0.17766-0.24428 0.55301-0.27851 0.60277-0.03423 0.04976-0.24905-0.081148-0.29584-0.10024-0.04678-0.019096 0.27955 0.069221 0.21362 0.080379-0.1486-0.019577 0.38951-0.70032 0.36052-1.2724-0.028171-0.55582-3.354-4.261-3.354-4.261z" fill="#7f161e" stroke="#45161e" stroke-width=".036813px"/>
<path d="m14.721 7.9123s0.0069-0.86269-0.50513-1.6866c-0.51198-0.82389-1.1243-1.2049-1.1243-1.2049s-0.75056-0.49224-1.3099-0.61874c-0.55935-0.1265-0.91555-0.11467-1.23-0.011804-0.3145 0.10287-0.56926 0.51131-0.56926 0.51131s-0.14098-0.73275 0.10941-1.3631c0.25037-0.6304 0.36101-0.93371 0.85553-0.97781 0.49452-0.044103 1.3761 0.26382 1.3761 0.26382s1.1486 0.39993 1.8566 0.95381c0.70799 0.55388 1.0072 1.0654 1.0072 1.0654s0.19345 0.37031 0.2426 0.71672c0.04915 0.34641-0.21183 1.5704-0.21183 1.5704s-0.24762 0.69502-0.49692 0.78154z" fill="#0f2315" stroke="#102717" stroke-width=".032648px"/>
</g>
<g stroke="#000" stroke-linecap="round">
<path d="m14.305 8.2964c-0.0071-0.016443 0.4297-0.13114 0.6175-0.04553 0.06964 0.03175 0.11257 0.11155 0.13745 0.18394 0.046 0.13388 0.04865 0.28882 0.0086 0.4246-0.03245 0.10999-0.10367 0.21262-0.19254 0.2851-0.07689 0.062718-0.1783 0.092042-0.27515 0.11362-0.11492 0.025598-0.24232 0.05711-0.35283 0.016497-0.079691-0.029286-0.18618-0.17382-0.18618-0.17382" fill="#d8afb2" stroke-width=".052917"/>
<path d="m14.258 9.1061c0.01748 0.00241 0.03585 0.0023 0.05308-0.00188 0.0032-7.937e-4 0.0064-0.0019 0.0095-0.00286 0.01619-0.00582 0.03315-0.00861 0.04974-0.012904 0.02-0.00397 0.03901-0.010906 0.05781-0.018616 0.0099-0.00427 0.01817-0.01125 0.02717-0.017055 0.01201-7e-3 0.02433-0.013533 0.03555-0.021765 0.01469-0.011335 0.02605-0.026188 0.03815-0.040104 0.0066-0.00908 0.01253-0.018547 0.01884-0.027795 0.01115-0.012626 0.02028-0.026758 0.02963-0.040711 0.0084-0.01139 0.0127-0.024466 0.01627-0.037931 4e-3 -0.012417 5e-3 -0.025511 0.0076-0.038239 0.0035-0.015462 0.0047-0.031367 0.0061-0.04714 0.0013-0.013658 1.52e-4 -0.027008-0.0044-0.039957-0.0036-0.01007-0.0078-0.019897-0.01286-0.029297-0.0075-0.013446-0.01933-0.023244-0.03036-0.033634-0.01289-0.013057-0.02724-0.024344-0.04297-0.033751-0.01184-0.00694-0.02413-0.013351-0.0373-0.017375-1e-3 -3.439e-4 -0.0021-6.085e-4 -0.0031-0.00101-0.0092-0.00373-4.77e-4 -9.525e-4 -0.01174-0.00463-0.0066-0.00217-0.01345-0.00362-0.02019-0.00537-0.01414-0.0038-0.02852-0.00652-0.04315-0.00722-0.0091-0.00103-0.01813-0.00159-0.02715-0.00286-0.01685-0.00344-0.03254-0.00265-0.04902 0.00241-0.0036 0.00151-0.0076 0.0018-0.01123 0.00325-0.0087 0.00352-0.0026 0.00201-0.0094 0.00455-0.0039 0.00148-0.0051 0.00143-0.0095 0.00217-0.01077 0.00376-0.02299 0.00471-0.03312 0.010163-0.0015 0.00132-0.0056 0.00228-0.0045 4e-3 0.02366 0.038823 0.02168 0.041141 0.04868 0.026787 0.01343-0.00901 0.02399-0.021167 0.03387-0.03378 7.94e-4 -3.969e-4 7e-3 -0.014298 0.0087-0.010343 0.01057-0.00648 0.02139-0.012454 0.03155-0.019629 0.01008-0.00579 0.01815-0.014825 0.02835-0.020272 2e-3 -0.00124 0.0039-0.00259 6e-3 -0.00376 2e-3 -0.00114 0.0041-0.00204 0.0062-0.00316 0.0092-0.00512 0.01802-0.010869 0.02679-0.016687 0.01203-0.00923 0.02643-0.012565 0.04084-0.016219 0.02622-0.0082 0.05249-0.016206 0.0791-0.023027 0.01468-0.00303 0.0297-0.0031 0.04455-0.00491 0.0016-1.301e-4 0.0031-2.638e-4 0.0047-3.968e-4 0.0076-6.086e-4 0.0019 3.91e-5 -0.0054-5.557e-4 -0.0053-4.233e-4 0.0047-3.704e-4 0.0053-3.439e-4 0.0065 8.731e-4 0.01272 0.0033 0.019 0.00516 6e-3 0.00201 0.01186 0.0044 0.01789 0.0063 7.67e-4 2.405e-4 0.0017 0.00111 0.0023 5.821e-4 5.03e-4 -4.498e-4 -8.47e-4 -0.00101-0.0013-0.00151 5.02e-4 -0.0013 0.0038 0.00352 0.0075 0.0079 4e-3 0.00353 7e-3 0.00901 0.01184 0.011581 9.52e-4 8.731e-4 0.0019 0.00175 0.0029 0.00262 0.0022 0.00235 0.03543-0.028522 0.03325-0.030873-1.48e-4 -1.66e-5 -2.91e-4 -3.3e-5 -4.5e-4 -4.97e-5 -0.0037-0.0041-0.0081-0.00708-0.01152-0.011546-2.02e-4 1.8e-5 -4.5e-4 1.921e-4 -6.09e-4 5.37e-5 -0.0041-0.00378-0.0066-0.00873-0.01093-0.01233-0.0018-0.00148-0.0035-0.00314-0.0054-0.00448-0.0025-0.00175-0.0037-0.00172-0.0062-0.00282-0.0048-0.00209-0.0093-0.00488-0.01446-0.00619-0.0094-0.00387-0.0195-0.00669-0.02971-0.00735-0.0024-2.646e-4 -0.0049-0.00106-0.0073-0.00119-0.0084-4.234e-4 -0.01694-4.498e-4 -0.0254-5.821e-4 -0.01743-1.493e-4 -0.03488 8.996e-4 -0.05216 0.00325-0.01143 0.00198-0.01567 0.00249-0.02728 0.00553-0.0195 0.0051-0.03832 0.012507-0.05677 0.020542-0.01606 0.00733-0.03229 0.014388-0.04707 0.024159-0.01309 0.00809-0.02675 0.015425-0.03861 0.025329-0.0093 0.00736-0.01999 0.01275-0.02967 0.019648-0.0096 0.00651-0.01889 0.013451-0.02811 0.020495-0.0017 0.00143-0.0036 0.00275-0.0052 0.0043-0.0043 0.00412-0.0071 0.00956-0.01198 0.013092-0.0082 0.00792-0.01563 0.016936-0.02503 0.023474-0.0041 0.00225-0.0082 0.00445-0.01217 0.0068-0.0011 6.879e-4 -0.0041 9.525e-4 -0.0034 0.00212 0.02338 0.040391 0.03643 0.025519 0.02198 0.039497 0.01168-3.44e-5 0.02522-0.00546 0.03611-0.00925 0.0015-6.615e-4 0.0086-0.00387 0.0108-0.00469 0.0058-0.0022 0.01227-0.00251 0.01806-0.00503 0.0066-0.00156 0.01399-9.525e-4 -0.0024-0.00148-9e-3 -2.911e-4 0.02023-6.086e-4 0.01147 2.119e-4 0.0051 9.26e-4 0.01025 0.00228 0.01534 0.00287 0.0042 5.027e-4 0.0087-3.439e-4 0.01286 0.00106 0.0055 0.00108 0.01106 0.00161 0.0166 0.00257 0.01366 0.00235 1.4e-4 3.44e-4 0.01489 0.00308 0.0023 4.233e-4 0.0046 6.879e-4 0.0069 0.00103 0.0068 0.00159 0.01363 0.00344 0.02051 0.00456 0.0039 6.35e-4 0.0054 2.164e-4 0.0092 0.00119 0.0012 3.175e-4 0.0023 8.731e-4 0.0034 0.0013 0.0016 6.086e-4 0.0033 9.261e-4 0.0047 0.00169 0.0083 0.00439 0.01581 0.010163 0.02416 0.014393 0.0064 0.00342 0.01321 0.00667 0.01903 0.011097 0.0064 0.00482 0.01203 0.010583 0.01812 0.015724 0.0052 0.00452 0.01042 0.00926 0.01587 0.013531 0.0039 0.00307 0.0028 0.00119 0.0062 0.00524 9.26e-4 0.00111 0.0017 0.00235 0.0025 0.00352 0.0042 0.00666 0.0083 0.013459 0.01141 0.020685 0.0021 0.0081 2.65e-4 0.016391 3.6e-5 0.024657-0.0011 0.014071-0.0027 0.028124-0.0047 0.042087-0.0027 0.012684-0.0044 0.025493-0.0061 0.038339-1.29e-4 0.00116 1.27e-4 0.00254-5.82e-4 0.00348-0.0047 0.00616-0.0098 0.012078-0.01393 0.018672-0.0095 0.014131-0.01862 0.028519-0.02735 0.043137-0.0012 0.00217-0.0032 0.00569-0.0046 0.00777-0.0035 0.00514-0.0093 0.00847-0.01292 0.01356-0.01 0.011427-0.01973 0.023154-0.03151 0.03282-0.01177 0.00793-0.02434 0.014777-0.03511 0.024104-0.0017 0.00148-3e-3 0.00344-5e-3 0.00444-2.11e-4 1.061e-4 -4.49e-4 -1.892e-4 -6.87e-4 -1.49e-4 -0.0043 7.408e-4 -0.0084 0.00246-0.01272 0.00317-0.01844 0.00538-0.03688 0.010758-0.05534 0.016034-0.01646 0.00428-0.03268 0.0094-0.04913 0.013732-0.0058 0.00108-0.0071 0.00143-0.01309 0.00201-0.0025 2.386e-4 -0.0053-5.292e-4 -0.0076 5.027e-4 -0.0016 7.143e-4 0.0067-1.559e-4 0.0052 5.821e-4 -0.0041 0.00188-0.0094-0.00108-0.01344 0.00122-0.0032-8.202e-4 -0.0148 0.044055-0.01162 0.044877z" stroke-linejoin="round" stroke-width=".026458" style="paint-order:normal"/>
</g>
<g>
<path d="m11.108 4.7629c-0.35275-0.13884-0.78743 0.15293-1.0572 0.41932-0.1363 0.13461-0.23435 0.34062-0.21852 0.53153 0.016656 0.20089 0.15844 0.39182 0.31892 0.51381 0.1339 0.10179 0.31793 0.16662 0.48428 0.14174 0.1701-0.025441 0.34254-0.17127 0.43113-0.28348 0.08859-0.11221 0.34254-0.44294 0.31892-0.73823-0.02362-0.29529-0.07682-0.50567-0.27758-0.58468z" fill="#f3daf4" stroke="#000" stroke-width=".052917"/>
<path d="m13.205 5.7881s-0.43431-0.22551-0.80598 0.16704c-0.37167 0.39255-0.33412 0.39209-0.44266 0.72246-0.04737 0.14417-0.03758 0.35079 0.0084 0.45519 0.04594 0.1044 0.15869 0.26727 0.29233 0.32991 0.13364 0.062641 0.30486 0.079346 0.51784 0.050113s0.33826-0.14199 0.39673-0.20045c0.05846-0.058465 0.2798-0.27562 0.32991-0.63477 0.05011-0.35914 0-0.55124-0.06264-0.664s-0.23386-0.22551-0.23386-0.22551z" fill="#f3daf4" stroke="#000" stroke-width=".052917"/>
<path d="m11.493 6.0344s-0.25105 0.29144-0.41239 0.39046c-0.11117 0.06823-0.28333 0.032789-0.36854 0.13155-0.05609 0.065006-0.07045 0.16924-0.05012 0.25265 0.01506 0.061784 0.06504 0.11552 0.11908 0.14906 0.09076 0.056329 0.20733 0.058897 0.31315 0.068099" fill="none" stroke="#000" stroke-linecap="round" stroke-width=".052917"/>
<path d="m10.132 8.5635c0.15317 0.13253 0.31066 0.25787 0.48724 0.3514" fill="none" stroke="#000" stroke-linecap="round" stroke-width=".052917"/>
<path d="m9.498 6.9053c0.22321 0.032572 0.46078-0.00756 1.6206 0.74784 1.1598 0.75541 1.0172 0.6598 1.2072 0.85076 0.18995 0.19097 0.24638 0.36362 0.23312 0.52153s-0.06607 0.28984-0.21045 0.31582c-0.14438 0.025988-0.15585 0.00981-0.2311-0.00684-0.12481-0.027625-0.20524-0.087355-0.35231-0.15148-0.14707-0.064123-0.73048-0.49494-0.94898-0.69551-0.21849-0.20056-0.96536-0.59593-1.2713-0.70369-0.30591-0.10777-0.52671-0.26878-0.58111-0.47037-0.070651-0.37741 0.35285-0.4046 0.53437-0.40806z" fill="#2c0906"/>
<path d="m9.743 7.8114c-0.030726-0.035053 0.20598-0.23188 0.7949 0.059046 0.58892 0.29092 0.5221 0.34788 0.64793 0.41341 0.12582 0.065531 0.65983 0.34532 0.79103 0.59107 0.1312 0.24575-0.0051 0.29102-0.01977 0.31301-0.01971 0.0296-0.20167-0.043104-0.55073-0.29624-0.29885-0.21672-0.49283-0.38916-0.63155-0.49934-0.39276-0.31197-1.0239-0.57195-1.0318-0.58095z" fill="#c16c82"/>
<ellipse cx="10.464" cy="5.8344" rx=".10416" ry=".10035"/>
<ellipse cx="12.538" cy="6.8718" rx=".10416" ry=".10035"/>
</g>
<g fill="#d8afb2" stroke="#000" stroke-width=".052917">
<path d="m18.829 13.841s-0.14051 0.06728-0.20738-0.32705c-0.06688-0.39433-0.15951-1.2472-0.62179-1.7159-0.46228-0.46874-1.4339-1.2297-1.5248-1.3423-0.09086-0.11253-0.11595-0.22044-0.10516-0.33791 0.01323-0.144 0.09079-0.24535 0.20224-0.3838 0.18558-0.23054 0.36571-0.30559 0.58791-0.37195 0.22272-0.066516 0.46938-0.057346 0.69724-0.011392 0.21386 0.043131 0.41513 0.14625 0.59911 0.2635 0.15452 0.09848 0.29798 0.2201 0.41309 0.36266 0.13258 0.16421 0.25474 0.41032 0.30809 0.55314 0.05335 0.14282 0.15512 0.41786 0.217 0.53738 0.06188 0.11953 0.19755 0.39818 0.19755 0.39818z"/>
<path d="m0.88427 6.1076s0.4896-0.43539 0.71882-0.58037c0.22922-0.14497 0.56001-0.31231 0.86907-0.37727 0.22445-0.047179 0.45884 0.00493 0.68805-0.00331 0.16276-0.00585 0.34077 0.037929 0.4875-0.032747 0.16369-0.078846 0.31851-0.22754 0.36758-0.40248 0.06613-0.23574 6.92e-5 -0.52074-0.14098-0.72087-0.1432-0.20319-0.39825-0.32799-0.64113-0.38092-0.30087-0.065562-0.76017 0.050989-0.91852 0.098648-0.15835 0.047658-1.4304 2.3993-1.4304 2.3993z"/>
</g>
<g>
<ellipse cx="9.9215" cy="9.9215" rx="9.7799" ry="9.7783" fill="none" stroke="#dfdfdf" stroke-width=".26458"/>
</g>
</svg>
